<?xml version="1.0" encoding="UTF-8"?>
<svg id="Layer_1" data-name="Layer 1" xmlns="http://www.w3.org/2000/svg" viewBox="0 0 152.16 69.13">
  <defs>
    <style>
      .cls-1 {
        fill: #fff;
      }
    </style>
  </defs>
  <g>
    <path class="cls-1" d="M3.27,56.25h-.25l5.84-22.36c-.14,0-.21,.02-.21,.07L2.95,51.4l5.24-17.44c-.23,0-.35,.02-.35,.07l-.28,.95-.21,.04c-.21,0-.42-.09-.63-.28l-.04-.07s.07-.25,.21-.6l-4.18,.32c.07-.23,.12-.36,.14-.39l4.15-.25,.18-.53-7.17,.35,7.88-2.36,4.57-13.11-1.27,.21c-.07-.05-.25-.07-.53-.07-.02,.09-.26,.14-.7,.14,0,.12-.3,.18-.91,.18,0,.09-.08,.14-.25,.14-.14,0-.23-.05-.28-.14l-.28,.04c-.07,0-.11-.04-.11-.11,0-.02,.05-.06,.14-.11,0-.07-.06-.11-.18-.11s-.61,.22-1.48,.67c-.3,.14-.52,.21-.63,.21l.04-.11c-.09-.12-.15-.18-.18-.18-.47,0-.97,.06-1.51,.18l-.04-.04v-.07l.04-.04,.07,.04c.19-.16,.28-.27,.28-.32,.12-.16,.18-.28,.18-.35,.05,0,.08-.02,.11-.07,0-.05-.01-.07-.04-.07,.05-.28,.09-.42,.14-.42v-.14l.11-.21-.07-.07,.04-.07-.07-.11,.14-.28s-.04-.02-.04-.07c0-.14,.07-.25,.21-.32,.16-.16,3.15-1.42,8.96-3.76l.07-.21-7.8,3.09c2.02-1.24,4.22-2.39,6.61-3.45,.94-.42,1.43-.66,1.48-.7l1.79-6.82c2.69,1.34,4.27,2.71,4.71,4.11,2.41-1.24,5.32-2.41,8.72-3.52,3.07-1.03,6.56-1.84,10.48-2.43,.42-.12,.7-.18,.84-.18,0,.02,.01,.04,.04,.04l.49-.04c-.45,5.55-.68,8.38-.7,8.47l-.04-.04,.25-7.95h-.04c-.42,3.8-1.03,6.66-1.83,8.58-.49,1.2-1.04,1.79-1.65,1.79l-9.39,1.41-9.74,1.51,17.61-2.43c-.16,.35-.36,.57-.6,.67-.77,.26-1.35,.39-1.72,.39l-9.42,.67v.04l8.09,.35,.04,.04-12.52,.53c-.26,0-.63,.07-1.12,.21-.38,.09-.56,.15-.56,.18l-4.75,12.38,12.83-4.5c.4-.16,2.32-.84,5.77-2.04h.04c-.07,.26-.13,.39-.18,.39l-11.57,3.9c-.35,.14-2.67,.94-6.96,2.39l16.17-4.78,.04,.14c-.16,.05-.32,.12-.46,.21-.07,0-.15,.02-.25,.07-.21,.02-.36,.06-.46,.11l-.25,.04s-.12,.06-.35,.11c-.09,.09-.19,.14-.28,.14-.98,.28-1.5,.42-1.55,.42s-.11,.07-.18,.21c.35-.19,.64-.29,.88-.32l.07,.04c-.23,.05-.35,.08-.35,.11,0,.14,.02,.21,.07,.21,.4-.21,.86-.35,1.37-.42,0,.02,.04,.04,.11,.04,.14,0,.42-.12,.84-.35l.11,.04c.14-.12,.27-.18,.39-.18,.12,.05,.22,.07,.32,.07l.46-.14,.11,.04c.09,0,.21-.02,.35-.07l.18,.11c.23-.12,.48-.18,.74-.18,.19-.16,.33-.25,.42-.25l.07,.11c0,.07-.2,.16-.6,.28-.05,.07-.1,.11-.16,.12-.06,.01-.24,.08-.54,.21-.3,.13-.47,.19-.51,.19s-.09,.02-.16,.05-.14,.05-.21,.05l-.04-.04s-.05,.05-.14,.07c-.05,0-.09-.02-.14-.07-.02,.05-.09,.07-.21,.07-.09,.09-.29,.16-.6,.21-.12,0-.19,.05-.21,.14,0,.05,.02,.08,.07,.11l.39-.14,.07,.04,.07-.04c.09,0,.2,.07,.32,.21-.14,0-.21,.05-.21,.14,.02,.05,.05,.07,.07,.07,.8-.14,1.38-.26,1.76-.35l-.04-.11c.02-.07,.2-.11,.53-.11-.02,0-.04,.05-.04,.14-.07,.05-.15,.13-.25,.25-.09,.05-.14,.08-.14,.11v.04h.14c0,.19-.14,.53-.42,1.02-.07,.19-.21,.28-.42,.28l-13.57,2.46-.07,.04h.04c6.21-1.08,10.83-1.86,13.85-2.36,.05,.07,.07,.22,.07,.46,0,.26-.02,.46-.07,.6l.98-.25c0,.12-.35,.27-1.05,.46-.05,.09-.09,.28-.14,.56-.19,.28-.28,.48-.28,.6,0,.07,.04,.13,.11,.18,.07,.05,.11,.12,.11,.21,0,.16-.05,.34-.14,.53l.32-.04s.08,.04,.11,.11c0,.33-6.18,.8-18.53,1.41-.02,.12-.08,.28-.18,.49,.35-.05,5.1-.36,14.24-.95l1.69-.11v.04l-16.03,1.27c-1.59,4.17-3.09,8.05-4.5,11.64,0-.07-.04-.13-.11-.18l.11-.56c-.07,.07-.14,.16-.21,.28l-.14,.07-.39,2-.14,.14c0-.12-.01-.18-.04-.18-.14,0-.53,1.28-1.16,3.83-.09,.23-.15,.35-.18,.35-.14,0-.22,.09-.25,.28-.14,.75-.28,1.24-.42,1.48-.28,.77-.45,1.2-.49,1.27v.07l-.07,.18c-.05-.12-.08-.18-.11-.18l-.14,.32,.11-.04,.07,.04c-.14,.44-.27,.73-.39,.84,.05,0,.07,.01,.07,.04-.21,.56-.33,.86-.35,.88Zm-.42,.81l.04-.28h.04c-.02,.19-.05,.28-.07,.28Zm.07-.35c.07-.26,.12-.39,.14-.39v.32l-.14,.07Zm1.05-2.81c.14,0,.21-.12,.21-.35,0-.05,.05-.08,.14-.11l.07-.49c0-.07-.04-.12-.11-.14-.09,0-.2,.16-.32,.49l-.04,.18v.42h.04Zm1.83-34.7v-.04h.11l-.11,.04Zm2.5,14.48l.14-.53c-.21,0-.32,.02-.33,.07-.01,.05-.05,.2-.12,.46h.32Zm.53-2.74c.19-.05,.29-.08,.32-.11,2.44-8.04,3.71-12.3,3.83-12.8-.19,0-.28,.04-.28,.11-.05,.23-1.34,4.49-3.87,12.76l-.04,.04h.04Zm-.04,2.71c.09,0,.18-.18,.25-.53-.09,0-.14,.05-.14,.14l-.11,.39ZM20.57,11.29c6.05-2.27,11.09-3.78,15.12-4.54l-.04-.04c-4.38,.84-9.36,2.26-14.94,4.25l-.14,.32Zm.46-1.2c4.87-1.83,8.67-3.07,11.39-3.73l-.04-.04c-2.91,.77-6.68,1.99-11.32,3.66l-.04,.11Zm.18-1.27c5.16-1.9,10.32-3.59,15.5-5.06v-.04c-5.91,1.12-11.07,2.81-15.5,5.06v.04Zm6.01,17.05l-.07-.04,.04-.07,.04,.11Zm.42-.14s-.04-.01-.04-.04l.07-.07v.07s-.01,.04-.04,.04Zm.46-.14l-.04-.04,.04-.07,.04,.04s-.01,.07-.04,.07Zm1.69,.91v-.04c.02-.07,.06-.11,.11-.11l.07,.04,.07-.04s-.01,.07-.04,.07h-.04l-.18,.07Zm.6-.14l-.07-.04,.07-.07,.04,.07-.04,.04Zm.49-.14l-.04-.04h.07s-.01,.04-.04,.04Z"/>
    <path class="cls-1" d="M27.56,54.49l1.62-4.85-1.83,.04c-.61,0-1.1-.01-1.48-.04v-.04c1.31-.14,2.47-.29,3.48-.46l.07-.18-4.85,.6c-.44-.05-.77-.12-.98-.21-.3-.14-.53-.39-.69-.76-.15-.36-.23-.56-.23-.58,.47-.14,.94-.32,1.41-.53,.02,0,.07-.08,.14-.25l-.04-.04s.28-.13,.84-.32h.04s-.04,.06-.04,.11v.04h.28c.73-.07,1.11-.15,1.16-.25l-.04-.07-.11,.04s-.04-.01-.04-.04c0-.09,.12-.16,.35-.21,0-.14,.08-.22,.25-.25,.07-.05,.13-.07,.18-.07,.02,.05,.05,.07,.07,.07l.77-.32,.07,.04c.26-.14,.46-.21,.6-.21l.07,.04c.12-.02,.29-.13,.53-.32l1.65-.56,3.27-9.67s-.04-.02-.04-.07c.14-.35,.37-1.07,.7-2.14l-5.7,.7,6.12-2,.07-.25c-2.44,.8-3.68,1.2-3.73,1.2l-.07-.21c2.51-.77,3.8-1.18,3.87-1.23,2.04-6.3,3.46-10.29,4.25-11.95l-.49-.07-1.97,4.99c1.2-3.16,1.82-4.83,1.86-4.99-1.08-.21-1.98-.46-2.71-.74-1.71-.66-2.62-1.24-2.74-1.76l-.11-.84,7.7-2.25,.04-.14-7.77,2.11-.21-.53c5.34-1.73,8.16-2.66,8.44-2.78l1.58-4.11c.28,.07,.47,.11,.56,.11,.37-.54,.76-.81,1.16-.81,.47,0,1.3,.43,2.5,1.3,.05,.02,.14,.11,.28,.25l.32,.04v.04l-.32-.04c.14,.14,.29,.41,.46,.81,.05,.16,.08,.25,.11,.25l13.22-4.36c.42,.23,.91,.62,1.48,1.16,.61,.66,.98,1.12,1.12,1.41,.63,1.1,1.25,2.78,1.86,5.03-5.51,2.13-10.88,3.63-16.1,4.5-1.69,.23-2.9,.35-3.62,.35v.04c1.03,0,2.72-.18,5.06-.53,4.57-.87,9.49-2.23,14.77-4.08l.18,.77-1.34,.67,.95-.42v.07s-.45,.22-1.2,.53c-.66,.23-1.36,.52-2.11,.84l.07,.04,.53,.07s-.15,.07-.39,.14c.89-.05,1.39-.11,1.51-.18l.11,.04c.75-.07,1.36-.21,1.83-.42,0,.14-.08,.23-.25,.28-.49,.21-.88,.32-1.16,.32-.07-.07-.13-.11-.18-.11h-.04l.04,.18-.35,.14-.21-.11c-.33,.09-.56,.14-.7,.14l-.74-.04c-.33,.09-.49,.16-.49,.21,0,.02,.05,.08,.14,.18l.53-.04,.21,.04c0,.09-.69,.22-2.07,.39-.14,.02-.22,.07-.25,.14-.02,.07-.18,.12-.46,.14-1.69,.4-2.73,.6-3.13,.6-.14,0-.25,.02-.32,.07l-.11,.07s-.09-.05-.14-.14l-.25-.14c-.16,.09-.26,.16-.28,.21-.3-.05-.55-.07-.74-.07-.21,0-.41,.04-.6,.11l-.21-.04c-.19,.05-.28,.11-.28,.18-.07,.09-.18,.14-.32,.14-.21,0-.41-.04-.6-.11h-.04l.07,.14s-.12-.04-.21-.11c-.38,.07-.79,.11-1.23,.11-.3,.19-.53,.28-.67,.28-.05,0-.08-.04-.11-.11l-.18,.04c.28,.09,.59,.18,.91,.25,0,.02-.01,.04-.04,.04-2.74,.35-5.2,.53-7.38,.53-1.34,2.7-2.93,6.12-4.78,10.27l10.02-3.09-10.12,3.3-.11,.25c4.78-1.52,8.78-2.78,11.99-3.76,.12,.02,.27,.04,.46,.04,.05-.05,.11-.08,.18-.11,.02,.02,.06,.04,.11,.04,.07,0,.13-.04,.18-.11l.49-.04,.28,.04c.19,0,.4-.06,.63-.18l.46-.11c.14,.05,.25,.07,.32,.07,.05,0,.09-.04,.14-.11,.09,0,.18,.08,.25,.25l.04,.07c-.09,.05-.36,.14-.81,.28,0,.09-.32,.2-.95,.32-.28,.09-.42,.19-.42,.28v.04l-.6,.14c.23,.02,.39,.06,.46,.11v.04l1.97-.49,.25,.07c-.12,.02-.18,.06-.18,.11l.14,.07,.53-.07,.04,.04c-.07,.09-.15,.15-.25,.18-.12,.21-.18,.38-.18,.49,0,.07,.04,.12,.11,.14,0,.09,.2,.19,.6,.28,.12,.05,.18,.09,.18,.14,0,.02-.06,.06-.18,.11-.21,.12-.32,.26-.32,.42s.11,.3,.32,.42l.14,.25c-.09,.33-5.87,1.24-17.33,2.74-1.73,3.87-3.43,7.7-5.1,11.5,.7-.26,1.62-.52,2.74-.77,.91-.23,3.09-1,6.54-2.29l8.05-2.95s-2.82,1.17-8.47,3.45l12.02-4.11c.68-.19,1.12-.28,1.34-.28,.16,0,.35,.09,.56,.28l-21.34,6.89,13.43-4.08c5.6-1.71,8.43-2.57,8.47-2.57,1.22,0,2.34,2.03,3.38,6.08,0,.02,.01,.04,.04,.04l.63-.28c-.05-.14-.93-2.14-2.64-6.01l.07-.04,3.16,6.19-1.16,.49,.11,.42c-.26,.14-1.69,.52-4.29,1.12-2.39,.82-5.2,1.59-8.44,2.32-3.45,.73-6.39,1.09-8.82,1.09h-.07s.01-.04,.04-.04c1.05,0,2.69-.14,4.92-.42,3.63-.59,7.1-1.43,10.41-2.53h-.04c-8.2,1.76-15.84,2.91-22.92,3.45l-1.16,.07c-1.5,3.19-2.27,4.82-2.32,4.89Zm-4.54-6.89l.25-.11s-.08,.06-.25,.11Zm.95-.35l.07-.04s-.02,.04-.07,.04Zm.53,.25l.39-.18h.07c.19,0,.3-.04,.35-.11v-.07h-.14l-.28-.07c-.33,.07-.49,.15-.49,.25l.11,.18Zm5.66,1.55c.7-.07,1.05-.14,1.05-.21l.04-.07c-.68,.07-1.03,.13-1.05,.18-.02,.05-.04,.08-.04,.11Zm1.09-.14c8.79-1.2,15.55-2.38,20.29-3.55-4.66,1.12-11.41,2.25-20.25,3.38l-.07,.18h.04Zm1.09-4.46l.77-.28,3.73-9.14-.04-.04-4.46,9.46Zm2.5-8.19l1.2-3.38c-.16,.02-.25,.06-.25,.11-.4,1.03-.6,1.59-.6,1.69-.12,.49-.21,.74-.28,.76-.07,.01-.11,.06-.11,.16l-.21,.63,.25,.04Zm1.55-4.85c.16-.05,.25-.09,.25-.12s.02-.1,.07-.19c-.19,.02-.29,.06-.3,.12-.01,.06-.03,.12-.05,.19h.04Zm.18-.49c.16-.05,.25-.08,.25-.11l4.04-11.32h-.11l-4.18,11.43Zm.77,16.45c7.34-1.29,13.05-2.54,17.16-3.76v-.04c-4.08,1.2-9.74,2.37-16.98,3.52l-.25,.04,.07,.25Zm1.86-16.45l12.06-3.38-.07-.25c-7.95,2.34-11.93,3.53-11.95,3.55s-.04,.05-.04,.07Zm.21,1.86v-.04c8.25-1.03,12.91-1.55,13.99-1.55,.19,0,.29,.08,.32,.25,0,.61-.75,.91-2.25,.91l-12.06,.42Zm1.93-19.2c.14-.02,.22-.05,.23-.09,.01-.04,.02-.06,.02-.09-.14,0-.22,.06-.25,.18Zm6.54-1.9l1.83-.53c-1.12,.3-1.73,.48-1.83,.53Zm.21-2.57s-.04-.01-.04-.04h.04v.04Zm0,2.11l12.3-4.54-12.16,4.22-.14,.32Zm.63-1.48l.04-.04s-.01,.04-.04,.04Zm.07-.04c.14-.09,1.65-.82,4.54-2.18l4.57-2.21,.25-.04c.28,0,.47,.12,.56,.35,0,.35-3.3,1.71-9.91,4.08Zm11.64,7.84l.11-.04-.11-.14-.04,.07,.04,.11Zm1.9-1.16l.32-.04-.07-.04-.25,.07Z"/>
    <path class="cls-1" d="M57.13,28.02c-.12,0-.3-.14-.56-.42l-.11-.14c1.03-1.73,2.54-3.76,4.54-6.08,2.09-2.46,4.27-4.69,6.54-6.68-1.36,1.57-2.37,2.84-3.02,3.8l-.11,.18,.04,.28c-1.05,1.12-2.91,3.5-5.55,7.14-.96,1.29-1.55,1.93-1.76,1.93Zm6.22,25.35c.35-1.08,1.78-5.27,4.29-12.59l.25-.81c-.38,.02-.56,.05-.56,.07l-3.66,8.51s-.04-.01-.04-.04l3.38-8.44-.77,.18c.28-.21,.6-.41,.95-.6,4.01-10.12,6.02-15.22,6.05-15.29,.02-.07,.39-1.16,1.09-3.27l-6.33,15.64-.21,.04c-.45-.05-.67-.13-.67-.25l7.35-15.82,1.2-3.59c-.42,.35-.86,.75-1.3,1.2-1.97,2.2-3.62,4.52-4.96,6.96-1.62,2.91-3,6.29-4.15,10.16-.14-.02-.21-.05-.21-.07,.37-1.45,.84-2.91,1.41-4.36,1.5-3.87,3.3-7.23,5.41-10.09-1.05,1.24-1.95,2.44-2.69,3.59-.74,1.15-1.42,2.33-2.06,3.55-1.24,2.48-2.18,5.13-2.81,7.95,0,.28-.09,.62-.28,1.02-.07,.14-.14,.25-.21,.32l-1.93-2.07c1.38-4.52,3.27-8.55,5.66-12.09,3.38-4.73,7.31-8.28,11.81-10.65v-.04c-2.7,1.36-5.24,3.15-7.63,5.38-4.85,4.76-8.14,10.5-9.88,17.23,0,.07-.01,.11-.04,.11-2.51-2.67-3.91-4.25-4.22-4.75-.19-.23-.34-.56-.46-.98l-.07-.28c2.25-3.61,4.71-6.96,7.38-10.05l.04,.07c.33-.47,.86-1.07,1.58-1.79l-.84,.74c.61-.91,1.59-2.13,2.95-3.66,1.43-1.52,2.31-2.39,2.64-2.6,4.48-3.68,8.55-6.15,12.23-7.42,1.2-.37,2.14-.56,2.85-.56,1.62,0,3.45,.55,5.48,1.65-.63-.44-1.46-.97-2.5-1.58l-.28-.18c5.74,1.92,8.61,4.97,8.61,9.14,0,3.75-2.24,8.02-6.71,12.8-1.2,1.22-2.32,2.27-3.38,3.16h.04c.89-.73,1.99-1.71,3.3-2.95,2.11-2.13,3.6-3.97,4.46-5.52,1.66-2.67,2.5-5.31,2.5-7.91,0-.8-.06-1.55-.18-2.25,.63,1.52,.95,2.98,.95,4.36,0,2.32-.68,4.66-2.04,7.03-.94,1.62-2.34,3.39-4.22,5.31-1.9,1.83-4.31,3.84-7.24,6.05-.02,0-.04-.01-.04-.04l-.46,.14,.04-.28-.21-.25-.7,.39c-.14,.21-.43,.5-.88,.88-.14,.12-.21,.2-.21,.25s-.03,.07-.09,.07-.16,.07-.3,.21-.24,.21-.3,.21-.26,.16-.62,.49c-.09,.07-.22,.13-.39,.18-.49,.38-.74,.59-.76,.63-.01,.05-.18,.09-.51,.14-.02-.05-.05-.07-.07-.07-.05,.05-.07,.12-.07,.21-.07,0-.12,.05-.14,.16-.02,.11-.08,.16-.18,.16-.42,.21-.68,.32-.77,.32-.12-.12-.2-.22-.25-.32v-.11c-.09,0-.2,.06-.32,.18-.19,0-.3,.13-.35,.39h-.49c-.66,.28-1.04,.48-1.16,.6-.23,0-.54,.08-.91,.25l-.53-.11-.18,.18h1.37c3.28,0,7.01,.87,11.18,2.6,.23,.16,.37,.29,.42,.39,.23,0,1.18,.55,2.85,1.65,.61,.4,.96,.6,1.05,.6,.05,.09,.16,.21,.35,.35,.02,.02,.04,.06,.04,.11l-.04,.88s-.12-.06-.21-.18c-.02,.07-.09,.11-.21,.11l-.18-.07c-.21-.07-.34-.11-.39-.11-.12,.16-.18,.26-.18,.28l.53,.46c.12,.05,.21,.11,.28,.18,.35,.14,.53,.3,.53,.49,0,.23-.28,.57-.84,1.02h-.04l-.25-.35c-.12,.09-.18,.16-.18,.21,0,.09,.11,.2,.32,.32,.09,.02,.14,.14,.14,.35l-.07-.11c-.45,0-.73-.04-.84-.11-.12,0-.26-.09-.42-.28l-1.97-.53c-3.87-2.53-7.91-4.41-12.13-5.62v.04c2.32,.63,4.63,1.58,6.93,2.85,2.2,1.12,3.74,2.02,4.61,2.67l-.04,.11c.26,.16,.41,.25,.46,.25s.28,.22,.7,.67c.3,.28,.69,.47,1.16,.56,.05,0,.11,.05,.18,.14,.19,.14,.34,.28,.46,.42,.02-.02,.06-.04,.11-.04,.07,0,.18,.08,.32,.25,.02,.02,.11,.05,.25,.07,.05,.07,.14,.13,.28,.18-.07,.28-.12,.42-.14,.42-.14-.02-.21-.07-.21-.14-.09-.33-.18-.5-.25-.53-.09,.07-.14,.18-.14,.32-.35-.35-.6-.53-.74-.53h-.04c0,.26,.02,.4,.07,.42,.21,.12,.32,.2,.32,.25l-.04,.14h.04s.13-.04,.25-.11c.19,.16,.41,.3,.67,.42l-.07,.21-.32-.07-.21,.11c-.14-.21-.26-.36-.35-.46-.33,0-.75-.19-1.27-.56-.23-.05-.43-.15-.6-.32,.02,0,.04-.01,.04-.04s-.12-.08-.35-.18c-.09-.12-.16-.18-.21-.18-.02,0-.06,.02-.11,.07-.09-.12-.15-.18-.18-.18-.05,0-.12,.04-.21,.11l-.25-.35c-.09,.12-.15,.18-.18,.18l-.53-.28v-.11c-.26,0-.39-.07-.4-.21-.01-.14-.04-.22-.07-.25-.04-.02-.1-.08-.19-.18l-.11,.04-.25-.07c-.09,0-.16,.02-.21,.07l.11,.14v.04l-.11,.04c-.38-.28-.98-.69-1.83-1.23-.05-.14-.09-.23-.14-.28l-.07,.14c-1.95-1.27-3.82-2.33-5.62-3.2-2.34-1.2-4.46-1.93-6.36-2.21,0-.02-.07-.04-.21-.04l-.14,.42c1.92,.33,3.96,1,6.12,2,2.51,1.2,5.2,2.92,8.09,5.17,.05,.02,.07,.05,.07,.07-4.03-2.65-7.77-4.65-11.21-6.01-1.71-.68-2.77-1.02-3.16-1.02-1.59,3.94-2.93,7.1-4.01,9.49-.3,.66-.7,1.31-1.2,1.97-.33,.52-.7,.91-1.12,1.2Zm4.25-13.92l.6-.28,1.62-4.78h-.04c-1.41,3.26-2.13,4.95-2.18,5.06Zm3.06-1.09c.47-.14,1.14-.27,2-.39,.56-.05,.87-.08,.91-.11,.54-.44,1.34-1.16,2.39-2.14,1.08-.89,1.83-1.63,2.25-2.21,.3-.52,.6-.94,.88-1.27,2.02-1.99,3.12-3.12,3.3-3.38-1.88,1.78-3.98,3.73-6.33,5.84v-.07l9.81-9.91c.98-1.73,1.8-3.9,2.46-6.5-.47,2.16-1.15,4.18-2.04,6.08,.33-.3,.5-.52,.53-.63,1.9-3.02,2.85-5.36,2.85-7,0-.37-.04-.73-.11-1.05,.96,.35,1.44,.82,1.44,1.41l-.04,.42h.04c.35-.96,.53-1.82,.53-2.57,0-1.17-.46-2.11-1.37-2.81-.63-.4-1.38-.6-2.25-.6-2.79,0-6.02,1.24-9.7,3.73l-.39,.28c.59,.26,1.12,.6,1.62,1.02s.79,1.02,.88,1.79c0,.56-1.41,3.39-4.22,8.47-.61,1.03-.97,1.69-1.09,1.97l-2.92,6.61c-.23,.28-.72,1.29-1.44,3.02Zm6.64-.74l-.07-.11c.3-.16,.47-.27,.51-.32,.04-.05,.06-.07,.09-.07l.04,.04c-.05,.21-.12,.33-.21,.35-.09,.02-.21,.06-.35,.11Zm2.25-1.16c-.09,0-.14-.01-.14-.04h.11s.04,.01,.04,.04Zm.46-.14s-.07-.06-.07-.11,.02-.08,.07-.09c.05-.01,.19-.11,.42-.3,.02,0,.06,.04,.11,.11-.02,.05-.2,.18-.53,.39Zm.28-24.29c2.02-.96,4.12-1.7,6.33-2.21-.26,0-1.01,.18-2.25,.53-1.48,.49-2.85,1.05-4.11,1.69h.04Zm2.04,23.03s-.05-.04-.07-.11c0-.07,.11-.19,.32-.35,.07-.05,.11-.09,.11-.14l-.04-.14c0-.16,.09-.39,.28-.67,.35-.3,.69-.46,1.02-.46,.19,0,.28,.05,.28,.14,0,.14-.4,.55-1.2,1.23-.35,.33-.59,.49-.7,.49Zm7.28,15.05l-.35-.21-.14-.04-.11,.04c-.07-.16-.11-.28-.11-.35h.04s.16,.11,.35,.18c.19,.07,.34,.16,.46,.28l-.14,.11Zm1.09-2.81s-.04-.04-.04-.11c.02-.05,.05-.07,.07-.07,.05,0,.07,.01,.07,.04l-.11,.14Z"/>
    <path class="cls-1" d="M94.85,54.35l-.04-.14s.07-.06,.07-.11c0-.14-.07-.33-.21-.56l.04-.07-.04-.18,.07-.07c-.07-.07-.14-.11-.21-.11l.04,.07s-.05,.05-.14,.07v-.32l.25,.04-.04-.56-.21-.11s-.04-.11-.04-.18l.04-.35-.04-.18v-.56c.07,0,.13,.04,.18,.11l-.11,.28c.09,.12,.14,.23,.14,.35,0,.07-.04,.14-.11,.21,.02,0,.08,.04,.18,.11l.07-.14s-.07-.09-.07-.14c.02-.05,.04-.11,.04-.18,0-.3-.06-.57-.18-.81,.07-.07,.11-.13,.11-.18l-.07-.28-.07-.11,.07-.25-.07-.49,.07-.25-.07-.18c0-.14,.01-.26,.04-.35,.07-1.01,.12-1.51,.16-1.51s.05-.3,.05-.91c.42-3.54,.93-6.69,1.51-9.46v-.04c-1.31,5.62-2.14,10.49-2.5,14.59,0,.09-.01,.15-.04,.18-.16,0-.25-.01-.25-.04,.52-5.84,2.04-13.38,4.57-22.64l2.18-9.63c.49-2.13,1.01-4.09,1.55-5.87-.42,1.95-.81,4.62-1.16,8.02,0,.02,.01,.04,.04,.04,.14-.77,.34-2.13,.6-4.08,.23-1.38,.47-2.48,.7-3.3l.42-.81,.14-.21v-.25c.19-.14,.28-.27,.28-.39l.56-1.05c0-.14,.08-.32,.25-.53l.07-.25c0-.28,.08-.44,.25-.49,.02,0,.07-.18,.14-.53,.07-.26,.12-.4,.14-.42l.14,.25-.04,.25c.16-.16,.35-.41,.56-.74,.02-.16,.06-.27,.11-.32s.07-.08,.07-.11l-.11-.21c.16-.19,.26-.28,.28-.28l.04,.21c0,.19-.05,.36-.14,.53l.04,.21c-.05,.14-.11,.26-.18,.35,0,.4-.07,.7-.21,.91,0,.16,.01,.29,.04,.39l.07-.21,.18-.14-.04-.28s.12-.2,.21-.46c.02-.07,.07-.14,.14-.21l.04-.18v.11c0,.26-.06,.6-.18,1.02-.02,0-.04,.04-.04,.11,0,.16-.05,.42-.14,.77-.09,.05-.14,.29-.14,.74l-.11,.14,.04,.32-.07,.35c.07,0,.13-.07,.18-.21,.14-.12,.22-.23,.25-.35,.02-.12,.06-.18,.11-.18l-.07-.14s.08-.05,.18-.14c.02,0,.05-.08,.07-.25,.02,0,.06-.09,.11-.28,.23-.3,.46-.73,.67-1.27,.05-.09,.1-.14,.16-.14s.1-.08,.12-.25c.02,0,.04-.01,.04-.04l-.04-.07c.12-.07,.21-.19,.26-.37,.06-.18,.12-.32,.18-.44,.06-.12,.1-.18,.12-.18l.11,.11s-.04,.11-.04,.18-.05,.15-.14,.25c-.02,.16-.07,.29-.14,.39-.02,0-.05,.12-.07,.35-.19,.59-.28,.98-.28,1.2,.09,0,.14,.01,.14,.04-.05,.05-.12,.19-.21,.42l-.11,.11c0,.07,.09,.13,.28,.18,.02,0,.04-.02,.04-.07s.08-.32,.25-.81l-.18-.32,.25-.42c0-.26,.09-.48,.28-.67l.07-.21,.07,.04h.21c.09-.33,.14-.54,.14-.63l-.04-.07c.12-.09,.2-.22,.25-.39,0-.02,.02-.08,.07-.18,.05-.09,.07-.2,.07-.32l-.04-.21,.18-.28-.04-.25,.14,.07s.04-.05,.04-.16,.01-.16,.04-.16c.82,.4,1.76,.91,2.81,1.55,1.15,.7,1.99,1.2,2.53,1.48,.09,.14,.14,.29,.14,.46,0,.45-.22,1.18-.67,2.21h.04c-.05,.14-.09,.21-.14,.21l.04,.11-.18,.21v.14c-.54,1.41-1.25,3.33-2.14,5.77-.28,.7-.54,1.31-.77,1.83v.04c.52-1.12,1.3-3.05,2.36-5.77l.77-1.83h.14l-.04-.04v-.21c.07-.19,.12-.28,.14-.28s.07,.06,.14,.18l.14-.39c.33-.94,.49-1.6,.49-2,0-.56-2.09-2.04-6.26-4.43l-.04-.07c4.34,2.32,6.5,3.8,6.5,4.43,0,.4-.14,1.05-.42,1.97,.09,0,.16,.05,.21,.14l-.18,.25,.04,.25c-.07,.14-.15,.25-.25,.32l.04,.14-.21,.21,.11,.28s-.07,.06-.07,.12-.02,.12-.07,.18c-.05,.06-.07,.1-.07,.12l.04,.07c-.07,.14-.12,.21-.14,.21s-.05,.11-.07,.32l.04,.07s-.07,.14-.21,.35c-.07,.07-.11,.3-.11,.7-.26,.12-.39,.25-.39,.39l.04,.07c-.05,.16-.11,.28-.18,.35v.18c0,.09-2.81,6.14-8.44,18.14v.04c3.23-6.4,6.09-12.11,8.58-17.12,.02,0,.04,.01,.04,.04-.07,.19-1.54,3.18-4.39,8.96-4.34,8.86-7.31,14.88-8.93,18.07l-.42,.88c1.24-1.45,2.46-3.01,3.66-4.68,1.27-1.76,3-4.24,5.2-7.45,4.24-6.12,10.18-13.24,17.82-21.38,.02,0,.13-.08,.32-.25-.02,.05-.11,.14-.25,.28h.07c-5.91,6.94-9.73,11.51-11.46,13.71,2.53-2.93,6.02-6.83,10.48-11.71,1.15-1.27,1.78-1.95,1.9-2.04,.12-.09,.26-.21,.42-.35,.02,0,.11-.09,.25-.28,.23-.23,.39-.4,.46-.49l-.04-.07c.09-.02,.16-.08,.21-.18,.05-.09,.09-.14,.12-.14s.1-.07,.19-.21c.09-.14,.18-.21,.25-.21,.05-.14,.11-.21,.18-.21,0-.05,.04-.09,.11-.14,.09-.14,.18-.25,.26-.32,.08-.07,.12-.12,.12-.14l.39-.46c.02-.07,.12-.18,.28-.32,0-.02,.08-.12,.25-.28,.02-.09,.09-.19,.21-.28,0-.05,.05-.09,.14-.14,0-.05,.04-.09,.11-.14,.09-.16,.19-.27,.28-.32,0-.05,.16-.25,.49-.6,1.15-1.29,2.24-2.54,3.27-3.76l-.07,.18s.11-.04,.18-.12c.07-.08,.11-.13,.11-.16v-.04l-.14,.11h-.04l.28-.21h.07s-.04,.06-.11,.11c0,.09-.23,.38-.7,.84v.07c-.54,.59-.9,1-1.09,1.23h.07s-.2,.25-.6,.6l.04,.04s-.07,.08-.07,.11c.12-.12,.29-.27,.53-.46,.23-.19,.5-.43,.81-.74,.21-.12,.32-.19,.32-.21l-.04-.04c.14-.09,.3-.25,.49-.46-.75,1.08-1.81,2.54-3.16,4.39-.42,.54-2.41,3.3-5.98,8.3-3.05,4.29-5.43,7.89-7.14,10.79-1.85,3.19-3.98,7.2-6.4,12.02l-1.05,1.27c1.85-3.7,3.44-6.78,4.76-9.23,1.32-2.45,2.92-5.09,4.8-7.93,1.73-2.55,3.77-5.46,6.12-8.72-1.9,2.51-3.66,4.88-5.27,7.1,.02,0,.05,.02,.07,.07,0,.02-.08,.13-.25,.32-3.54,5.23-6.93,11.11-10.16,17.65l-.04,.04,2.25-5.17c-3.96,7.22-6.04,10.88-6.22,10.97-.09,.02-.18,.09-.25,.21-.45,.73-1.04,1.56-1.79,2.5-.75,.77-1.3,1.31-1.65,1.62-.63,.49-1.18,.87-1.65,1.12-.7,.42-1.86,.83-3.48,1.23-1.69,.49-2.67,.9-2.95,1.23,0,.09-.05,.15-.14,.18-.02,.05-.06,.08-.11,.09-.05,.01-.07,.03-.07,.05,.02,0,.04,.02,.04,.07l-.14,.04Zm.49-.7c.49-.38,1.57-.81,3.23-1.3,.98-.23,1.79-.49,2.43-.77,1.85-.89,3.61-2.48,5.27-4.78-.35,.21-.53,.34-.54,.39-.01,.05-.03,.12-.05,.21h-.14l-.18,.25c-.14,.02-.21,.05-.21,.09s-.02,.06-.07,.09l.04,.18c-.19,.14-.3,.26-.35,.35-.12,.09-.25,.14-.39,.14-.19,.3-.3,.48-.35,.53-.16,.02-.26,.07-.28,.14v.11c-.14,.12-.25,.25-.32,.39-.14,.02-.29,.12-.46,.28-.16,.07-.25,.13-.26,.19-.01,.06-.02,.1-.02,.12l-.21-.04-.14,.32-.28-.04c-.23,.56-.74,.98-1.51,1.27-.47,.14-1.29,.27-2.46,.39-1.41,.21-2.32,.71-2.74,1.51Zm3.69-22.61s.09-.28,.21-.77c1.5-6.26,2.98-11.59,4.43-16l.04-.04-.21-.11c-1.38,4.36-2.87,10-4.46,16.91Zm2.39,8.16l7.77-18.46-.25-.07-7.56,18.53h.04Zm.39-25.8s-.04-.01-.04-.04l.04,.04Zm.6-1.2l.07-.21c0,.12-.02,.19-.07,.21Zm.11-.35c.23-.98,.46-1.77,.67-2.36l.28-.63c0,.16-.05,.32-.14,.46,.02,.05,.04,.12,.04,.21-.09,.21-.14,.36-.14,.46-.05,.02-.09,.16-.14,.42-.02,0-.06,.08-.11,.25l.04,.21c-.19,.21-.28,.36-.28,.44s-.01,.12-.04,.12c-.02,.12-.05,.21-.09,.26-.04,.06-.06,.11-.09,.16Zm2.67-4.04c.02-.28,.06-.42,.11-.42,.12-.16,.18-.35,.18-.56,.12-.12,.18-.21,.18-.28,.02,0,.05,.02,.07,.07-.09,.4-.14,.68-.14,.84-.19,.12-.28,.21-.28,.26s-.04,.09-.11,.09Zm.63-1.72l-.04-.07c0-.14,.02-.21,.07-.21h.04s-.07,.14-.07,.28Zm.46,5.52v-.21l-.21-.04v.14s.07,.06,.21,.11Zm.21,31.85c2.79-4.66,4.93-8.21,6.43-10.65,1.71-2.74,3.8-5.81,6.26-9.21l.74-1.27c.07-.02,.13-.05,.19-.09,.06-.04,.3-.32,.72-.86h-.39l-1.93,2.67c-2.02,2.84-3.79,5.49-5.31,7.96-1.52,2.47-3.64,6.05-6.36,10.74l-.42,.7h.07Zm.07,2.95l.04-.07s-.04,.01-.04,.04v.04Zm.77-39.2v-.32l.11-.14c.07,.16,.11,.29,.11,.39,0,.02-.07,.05-.21,.07Zm.11-.6h-.04c0-.19,.05-.33,.14-.42l.04,.04c-.09,.12-.14,.21-.14,.28v.11Zm20.25,4.96c.07-.02,.11-.06,.11-.11-.05,.02-.08,.06-.11,.11Zm7.45-8.58h-.04c.05-.16,.09-.25,.14-.25v.04c0,.07-.04,.14-.11,.21Zm.18-.25h-.04s.02-.08,.07-.11v.04l-.04,.07Zm.14-.14h-.04c.02-.09,.05-.14,.07-.14l.04,.04-.07,.11Zm.14-.14h-.04s.01-.04,.04-.04v.04Zm.18-.25l-.04-.04,.07-.04-.04,.07Zm.18-.28v-.04l.18-.14,.07-.11s-.04-.01-.04-.04c.02-.07,.11-.16,.25-.28l-.14,.21c.21-.21,.36-.41,.46-.6,0-.02,.07-.12,.21-.28l.04,.04c-.02,.07-.07,.14-.14,.21v.04l-.56,.7c0,.07-.07,.15-.21,.25l-.11,.04Zm.07-.11h-.04s.02-.05,.07-.07l-.04,.07Zm1.3-1.58c.05-.09,.12-.18,.21-.25V.07c-.12,.12-.19,.18-.21,.18Z"/>
    <path class="cls-1" d="M119.21,55.34l.67-2.6c.07-.16,.13-.38,.18-.63l-.28,.11c-.07,.16-.18,.25-.32,.26-.14,.01-.21,.05-.21,.12l-.56,.32c0,.07,.09,.15,.28,.25,.05,0,.07,.01,.07,.04,0,.05-.07,.09-.21,.14-.05,.07-.12,.11-.21,.11-.02,.05-.22,.12-.6,.21h-.07c.09-.12,.22-.19,.39-.21l.18-.28c-.16,0-.3,.06-.42,.18-.09,0-.23,.04-.42,.11-.05,0-.12,.05-.21,.16-.09,.11-.18,.16-.25,.16-.05,0-.07-.06-.07-.18,.05-.07,.14-.12,.28-.14h.07s.11-.07,.25-.07c.02-.19,.07-.28,.14-.28,.14-.05,.27-.14,.39-.28,.23-.12,.39-.19,.46-.23s.15-.15,.25-.33l.18-.07,.25,.04c.02-.09,.07-.14,.14-.14,.38-.02,.57-.06,.58-.11,.01-.05,.06-.27,.16-.67-.05,0-.16,.05-.35,.14-.05,0-.09,.02-.14,.07-.07,0-.13,.02-.18,.07-.07,0-.2,.06-.39,.18-.05,.05-.13,.07-.25,.07l-.11,.07c-.14,0-.32,.04-.53,.11-.02-.02-.04-.08-.04-.18-.14,0-.28,.06-.42,.18-.42,.05-.63,.08-.63,.11-.19,.14-.3,.21-.35,.21s-.08,.01-.11,.04c-.54-2.13-.81-3.26-.81-3.38v-.84c0-.14,.04-.3,.11-.49-.07-.4-.15-.61-.23-.63-.08-.02-.12-.06-.12-.11s.15-.21,.46-.49c.54-.3,.84-.49,.91-.56-.12,0-.77,.21-1.97,.63,0,.02-.02,.05-.07,.07l-.18-.49c-.26,.09-.39,.15-.39,.18l2.25,6.61s-.36-.79-.95-2.29l-1.83-4.57,.77-.39-.07-.28,2.78-.84c1.38-.56,3.01-1.12,4.89-1.69l6.82-32.38s.11,.3,.25,.9,.22,.96,.25,1.07c-.35,.91-.91,2.93-1.69,6.05l4.64-15.26,3.34-.28,.07-.21s-.01-.08-.04-.11h-.07l-.07,.14c0-.09,.04-.18,.11-.25,.07,.05,.12,.07,.14,.07,.05-.16,.09-.25,.14-.25v.04c0,.12-.02,.19-.07,.21v.07c0,.12-.02,.21-.07,.28,0,.23-.04,.42-.11,.56,.3,0,.46,.03,.47,.09,.01,.06,.02,.21,.02,.44l-.04,.88,.49,.21s.02-.07,.07-.07c.07,0,.23,.08,.49,.25,.14,.02,.22,.04,.25,.05,.02,.01,.06,.03,.11,.05l.49-1.2c0,.61-.07,1.14-.21,1.58l-.04,.07s.09,.06,.14,.18c.07,.05,.13,.07,.18,.07,.02,0,.05-.05,.07-.14,.14-.14,.21-.27,.21-.39v-.11l.25-.21,.25,.14-.11,.25s.06,.05,.18,.07l.18,.07-.04-.42,.32,.11c-1.76,4.29-2.66,6.52-2.71,6.68l.42,.28c-.42,.77-1.07,2.23-1.93,4.36-2.51,6.33-5.62,14.68-9.35,25.07,2.81-.61,5.41-.91,7.8-.91,.82,0,1.56,.04,2.21,.11v.04c3.47,0,6.36,.41,8.68,1.23,1.57,.47,3.04,1.18,4.39,2.14,.98,.68,1.79,1.46,2.43,2.36l-.07,.04c-.12-.21-.43-.57-.95-1.09-1.01-.94-2.06-1.68-3.16-2.21v.04c1.36,.77,2.57,1.83,3.62,3.16l.49,.7c-3.54-3.75-8.75-5.62-15.64-5.62-.96,0-1.92,.05-2.88,.14,0,.12,.01,.2,.04,.25,1.01-.12,2.07-.18,3.2-.18,6.38,0,11.29,1.62,14.73,4.85,.59,.63,.88,.97,.9,1,.01,.04,.09,.19,.23,.47-2.79-.42-5.74-.63-8.86-.63-4.76,0-8.81,.62-12.16,1.86h-.04c.07-.07,.57-.25,1.51-.53,3.47-1.01,7.37-1.51,11.71-1.51,1.31,0,2.67,.06,4.08,.18l.04-.04c-1.62-.19-3.23-.28-4.85-.28-4.08,0-8.36,.57-12.83,1.72,.07-.05,.11-.09,.11-.14h-.14c-.12-.12-.23-.18-.35-.18-.33,0-1.21,.19-2.64,.56-.68,.21-1.02,.39-1.02,.53-.12,.07-.39,.15-.81,.25-.14-.05-.27-.07-.39-.07-.28,0-.65,.09-1.09,.28,0,.09-.05,.14-.14,.14l-.53-.11c0,.09-.04,.14-.11,.14h-.32c-.09,.19-.16,.28-.21,.28-.52,.12-.77,.21-.77,.28-.14,.09-.26,.14-.35,.14l.04-.04c0-.09-.05-.19-.14-.28l-.35,.18c0-.16,.33-.29,.98-.39h.04v-.04c-.12-.07-.21-.11-.28-.11l-.11,.07c-.16,.02-.47,.14-.91,.35-.05,0-.09,.02-.14,.07-.09,0-.15,.04-.18,.12-.02,.08-.08,.24-.18,.47,.12-.07,.3-.14,.56-.21l.39-.14c-.16,.19-.32,.28-.46,.28-.12,.07-.22,.11-.32,.11-.19,.12-.28,.19-.28,.21l-.18,.46h.11c0-.07,.04-.13,.11-.18,.12,.05,.18,.11,.18,.18l-.46,.14-1.2,2.88Zm2.07-4.32s.07,.04,.07,.11v.04s-.07-.05-.07-.14Zm.32-7.7c.42-.12,.64-.18,.65-.19s.02-.03,.02-.05l-.67,.25Zm1.48-2.78l1.79-6.93s-.04-.06-.04-.11c.54-2.13,1.95-8.06,4.22-17.79l-.84,5.2,3.41-13.01c.21-.82,.37-1.39,.49-1.71,.12-.32,.18-.49,.18-.51,.02,0,.06,.06,.11,.18l.18,.07,.04-.18c.16-.12,.25-.27,.25-.46,.12-.14,.19-.21,.21-.21,.16,.05,.25,.08,.25,.11l-.07,.25s.12,.07,.35,.14l-.07-.42,.63,.21s.02-.08,.07-.11l-7.88,27.14c-.12,.7-.19,1.07-.21,1.09-.14,.05-.21,.09-.21,.14l-.21,.77h.35l8.19-29.21c.07-.05,.11-.13,.11-.25,.16-.16,.25-.32,.25-.46,.14-.16,.21-.26,.21-.28,.05-.23,.1-.35,.16-.35s.09-.01,.09-.04v-.18h.04c.35,0,.53-.05,.54-.14,.01-.09,.02-.16,.02-.21v-.07s.06-.08,.18-.11v-.04l-2.95,.32-2.74,8.54c-1.57,4.83-2.39,7.38-2.46,7.66-1.31,5.6-2.85,12.57-4.61,20.92Zm1.41,2.07l1.2-.28,.07-.25-1.2,.32-.07,.21Zm.18-.46l1.2-.28,3.87-12.09-5.06,12.38Zm.81,7.17c2.46-.75,5.29-1.41,8.49-1.99,3.2-.57,6.06-.86,8.6-.86,1.99,0,3.75,.18,5.27,.53h.04c-1.76-.4-3.73-.6-5.91-.6-4.8,0-10.34,.83-16.59,2.5l.11,.42Zm.49-7.07c3.73-.8,7.09-1.21,10.09-1.23-.63-.05-1.27-.07-1.9-.07-2.53,0-5.23,.35-8.09,1.05l-.11,.25Zm1.62,7.49h-.04c-.19,0-.28-.04-.28-.11l.25-.04s.07,.05,.07,.14Zm1.16-.11c-.09,0-.15-.06-.18-.18h.07c.09,0,.14,.05,.14,.14l-.04,.04Zm.32-.11c-.07-.02-.13-.08-.18-.18,0-.05,.22-.07,.67-.07,0-.07,.06-.12,.18-.14l.39,.07v.04l-1.05,.28Zm6.12-46.02s-.04-.06-.04-.11l.04-.07s.05,.04,.07,.11l-.07,.07Zm1.12-1.48h-.04c0-.07,.01-.11,.04-.11v.11Zm.63,.32s-.07-.06-.14-.18h.04c.07,0,.11,.06,.11,.18Z"/>
  </g>
  <g>
    <path class="cls-1" d="M53.13,57.06h2.35l1.82,7.12h.03v-7.12h1.67v11.9h-1.92l-2.24-8.69h-.03v8.69h-1.67v-11.9Z"/>
    <path class="cls-1" d="M60.38,57.06h1.87v11.9h-1.87v-11.9Z"/>
    <path class="cls-1" d="M64.24,68.36c-.47-.51-.71-1.23-.71-2.16v-6.39c0-.93,.23-1.65,.71-2.16,.47-.51,1.15-.76,2.05-.76s1.58,.25,2.05,.76c.47,.51,.71,1.23,.71,2.16v1.26h-1.77v-1.38c0-.74-.31-1.1-.94-1.1s-.93,.37-.93,1.1v6.65c0,.73,.31,1.09,.93,1.09s.94-.36,.94-1.09v-1.82h1.77v1.68c0,.93-.24,1.65-.71,2.16-.47,.51-1.15,.77-2.05,.77s-1.58-.25-2.05-.77Z"/>
    <path class="cls-1" d="M70.79,68.35c-.49-.52-.73-1.26-.73-2.21v-6.26c0-.95,.24-1.69,.73-2.21,.49-.52,1.19-.78,2.11-.78s1.62,.26,2.11,.78c.49,.52,.73,1.26,.73,2.21v6.26c0,.95-.24,1.69-.73,2.21-.49,.52-1.19,.78-2.11,.78s-1.62-.26-2.11-.78Zm3.08-2.09v-6.49c0-.78-.32-1.17-.97-1.17s-.97,.39-.97,1.17v6.49c0,.78,.32,1.17,.97,1.17s.97-.39,.97-1.17Z"/>
    <path class="cls-1" d="M76.99,57.06h1.87v10.2h3.08v1.7h-4.95v-11.9Z"/>
    <path class="cls-1" d="M84.35,57.06h2.53l1.94,11.9h-1.87l-.34-2.36v.03h-2.12l-.34,2.33h-1.73l1.94-11.9Zm2.04,7.96l-.83-5.88h-.03l-.82,5.88h1.68Z"/>
    <path class="cls-1" d="M90.05,68.35c-.46-.52-.7-1.25-.7-2.22v-.68h1.77v.82c0,.77,.32,1.16,.97,1.16,.32,0,.56-.09,.72-.28,.16-.19,.25-.49,.25-.91,0-.5-.11-.94-.34-1.32-.23-.38-.65-.84-1.26-1.37-.77-.68-1.31-1.29-1.61-1.84-.31-.55-.46-1.17-.46-1.86,0-.94,.24-1.67,.71-2.18s1.17-.77,2.07-.77,1.57,.26,2.03,.77,.69,1.26,.69,2.22v.49h-1.77v-.61c0-.41-.08-.71-.24-.89-.16-.19-.39-.28-.7-.28-.62,0-.94,.38-.94,1.14,0,.43,.12,.83,.35,1.21s.65,.83,1.27,1.36c.78,.68,1.32,1.3,1.61,1.85,.29,.56,.44,1.21,.44,1.96,0,.97-.24,1.72-.72,2.24-.48,.52-1.18,.78-2.1,.78s-1.59-.26-2.06-.77Z"/>
    <path class="cls-1" d="M98.72,57.06h2.67l1.19,8.52h.03l1.19-8.52h2.67v11.9h-1.77v-9.01h-.03l-1.36,9.01h-1.56l-1.36-9.01h-.03v9.01h-1.63v-11.9Z"/>
    <path class="cls-1" d="M109.31,57.06h2.53l1.94,11.9h-1.87l-.34-2.36v.03h-2.12l-.34,2.33h-1.73l1.94-11.9Zm2.04,7.96l-.83-5.88h-.03l-.82,5.88h1.68Z"/>
    <path class="cls-1" d="M114.38,67.29l3.47-8.53h-3.3v-1.7h5.3v1.67l-3.47,8.53h3.47v1.7h-5.47v-1.67Z"/>
    <path class="cls-1" d="M120.9,57.06h1.87v11.9h-1.87v-11.9Z"/>
    <path class="cls-1" d="M125.63,58.76h-1.96v-1.7h5.78v1.7h-1.96v10.2h-1.87v-10.2Z"/>
    <path class="cls-1" d="M130.35,57.06h5.1v1.7h-3.23v3.15h2.57v1.7h-2.57v3.65h3.23v1.7h-5.1v-11.9Z"/>
    <path class="cls-1" d="M136.53,57.06h1.87v10.2h3.08v1.7h-4.95v-11.9Z"/>
    <path class="cls-1" d="M142.37,57.06h1.87v10.2h3.08v1.7h-4.95v-11.9Z"/>
    <path class="cls-1" d="M148.22,57.06h1.87v11.9h-1.87v-11.9Z"/>
  </g>
  <rect class="cls-1" x="1.28" y="62.34" width="47.56" height="1.58"/>
</svg>