{
    "asset" : {
        "generator" : "Khronos glTF Blender I/O v3.2.40",
        "version" : "2.0"
    },
    "scene" : 0,
    "scenes" : [
        {
            "name" : "Scene",
            "nodes" : [
                0
            ]
        }
    ],
    "nodes" : [
        {
            "mesh" : 0,
            "name" : "S_Female_Bust_Statuette_ugsicgxva_lod3_Var1",
            "scale" : [
                0.009999999776482582,
                0.009999999776482582,
                0.009999999776482582
            ]
        }
    ],
    "materials" : [
        {
            "doubleSided" : true,
            "name" : "MI_Female_Bust_Statuette_ugsicgxva_2K",
            "pbrMetallicRoughness" : {
                "baseColorFactor" : [
                    0.2158605009317398,
                    0.2158605009317398,
                    0.2158605009317398,
                    1
                ],
                "roughnessFactor" : 0.5527864098548889
            }
        }
    ],
    "meshes" : [
        {
            "name" : "S_Female_Bust_Statuette_ugsicgxva_lod3_Var1",
            "primitives" : [
                {
                    "attributes" : {
                        "POSITION" : 0,
                        "NORMAL" : 1,
                        "TEXCOORD_0" : 2
                    },
                    "indices" : 3,
                    "material" : 0
                }
            ]
        }
    ],
    "accessors" : [
        {
            "bufferView" : 0,
            "componentType" : 5126,
            "count" : 687,
            "max" : [
                6.200412750244141,
                26.008373260498047,
                5.360878944396973
            ],
            "min" : [
                -7.241013526916504,
                -0.001117706298828125,
                -6.485852241516113
            ],
            "type" : "VEC3"
        },
        {
            "bufferView" : 1,
            "componentType" : 5126,
            "count" : 687,
            "type" : "VEC3"
        },
        {
            "bufferView" : 2,
            "componentType" : 5126,
            "count" : 687,
            "type" : "VEC2"
        },
        {
            "bufferView" : 3,
            "componentType" : 5123,
            "count" : 3234,
            "type" : "SCALAR"
        }
    ],
    "bufferViews" : [
        {
            "buffer" : 0,
            "byteLength" : 8244,
            "byteOffset" : 0
        },
        {
            "buffer" : 0,
            "byteLength" : 8244,
            "byteOffset" : 8244
        },
        {
            "buffer" : 0,
            "byteLength" : 5496,
            "byteOffset" : 16488
        },
        {
            "buffer" : 0,
            "byteLength" : 6468,
            "byteOffset" : 21984
        }
    ],
    "buffers" : [
        {
            "byteLength" : 28452,
            "uri" : "data:application/octet-stream;base64,"
        }
    ]
}
