{
    "asset" : {
        "generator" : "Khronos glTF Blender I/O v3.2.40",
        "version" : "2.0"
    },
    "scene" : 0,
    "scenes" : [
        {
            "name" : "Scene",
            "nodes" : [
                0
            ]
        }
    ],
    "nodes" : [
        {
            "mesh" : 0,
            "name" : "RunningStatic",
            "scale" : [
                0.009999999776482582,
                0.009999999776482582,
                0.009999999776482582
            ]
        }
    ],
    "materials" : [
        {
            "doubleSided" : true,
            "name" : "Ch36_Body",
            "pbrMetallicRoughness" : {
                "baseColorFactor" : [
                    1,
                    0,
                    0.06124504283070564,
                    1
                ],
                "roughnessFactor" : 0.5527864098548889
            }
        }
    ],
    "meshes" : [
        {
            "name" : "RunningStatic",
            "primitives" : [
                {
                    "attributes" : {
                        "POSITION" : 0,
                        "NORMAL" : 1,
                        "TEXCOORD_0" : 2,
                        "TEXCOORD_1" : 3
                    },
                    "indices" : 4,
                    "material" : 0
                }
            ]
        }
    ],
    "accessors" : [
        {
            "bufferView" : 0,
            "componentType" : 5126,
            "count" : 15673,
            "max" : [
                33.74676513671875,
                171.1997833251953,
                55.338844299316406
            ],
            "min" : [
                -37.114295959472656,
                2.866288661956787,
                -68.6988754272461
            ],
            "type" : "VEC3"
        },
        {
            "bufferView" : 1,
            "componentType" : 5126,
            "count" : 15673,
            "type" : "VEC3"
        },
        {
            "bufferView" : 2,
            "componentType" : 5126,
            "count" : 15673,
            "type" : "VEC2"
        },
        {
            "bufferView" : 3,
            "componentType" : 5126,
            "count" : 15673,
            "type" : "VEC2"
        },
        {
            "bufferView" : 4,
            "componentType" : 5123,
            "count" : 86640,
            "type" : "SCALAR"
        }
    ],
    "bufferViews" : [
        {
            "buffer" : 0,
            "byteLength" : 188076,
            "byteOffset" : 0
        },
        {
            "buffer" : 0,
            "byteLength" : 188076,
            "byteOffset" : 188076
        },
        {
            "buffer" : 0,
            "byteLength" : 125384,
            "byteOffset" : 376152
        },
        {
            "buffer" : 0,
            "byteLength" : 125384,
            "byteOffset" : 501536
        },
        {
            "buffer" : 0,
            "byteLength" : 173280,
            "byteOffset" : 626920
        }
    ],
    "buffers" : [
        {
            "byteLength" : 800200,
            "uri" : "data:application/octet-stream;base64,"
        }
    ]
}
